<svg xmlns="http://www.w3.org/2000/svg" xmlns:xlink="http://www.w3.org/1999/xlink" viewBox="0 0 1201.33 451.58"><defs><style>.cls-1{isolation:isolate;}.cls-2{fill:url(#linear-gradient);}.cls-3{mix-blend-mode:multiply;}.cls-4{fill:url(#linear-gradient-2);}.cls-5{fill:url(#linear-gradient-3);}.cls-6{fill:url(#linear-gradient-4);}.cls-7{fill:#8ad4df;}.cls-8{fill:#00b5cc;}.cls-9{fill:url(#linear-gradient-5);}.cls-10{fill:url(#linear-gradient-6);}.cls-11{fill:url(#linear-gradient-7);}.cls-12{fill:url(#linear-gradient-8);}.cls-13{fill:url(#linear-gradient-9);}.cls-14{fill:url(#linear-gradient-10);}.cls-15{fill:url(#linear-gradient-11);}.cls-16{fill:url(#linear-gradient-12);}.cls-17{fill:url(#linear-gradient-13);}.cls-18{fill:url(#linear-gradient-14);}.cls-19{fill:url(#linear-gradient-15);}</style><linearGradient id="linear-gradient" x1="601.33" y1="7.13" x2="601.33" y2="340.81" gradientUnits="userSpaceOnUse"><stop offset="0" stop-color="#fff"/><stop offset="0.07" stop-color="#f9fefe"/><stop offset="0.16" stop-color="#e7fafc"/><stop offset="0.27" stop-color="#caf3f7"/><stop offset="0.4" stop-color="#a1eaf1"/><stop offset="0.42" stop-color="#97e8f0"/><stop offset="1" stop-color="#42c4dd"/></linearGradient><linearGradient id="linear-gradient-2" x1="-1.33" y1="99.29" x2="1198.67" y2="99.29" gradientUnits="userSpaceOnUse"><stop offset="0" stop-color="#42c4dd"/><stop offset="0.05" stop-color="#4fcae0"/><stop offset="0.18" stop-color="#69d5e6"/><stop offset="0.33" stop-color="#7eddea"/><stop offset="0.49" stop-color="#8ce3ee"/><stop offset="0.68" stop-color="#94e7ef"/><stop offset="1" stop-color="#97e8f0"/></linearGradient><linearGradient id="linear-gradient-3" y1="56.62" x2="1200" y2="56.62" gradientTransform="matrix(-1, 0, 0, 1, 1200, 0)" gradientUnits="userSpaceOnUse"><stop offset="0" stop-color="#89d4e3"/><stop offset="0.34" stop-color="#8fdce8"/><stop offset="1" stop-color="#97e8f0"/></linearGradient><linearGradient id="linear-gradient-4" x1="3389.78" y1="104.58" x2="4589.78" y2="104.58" gradientTransform="matrix(-1, 0, 0, 1, 4589.78, 0)" gradientUnits="userSpaceOnUse"><stop offset="0" stop-color="#89d4e3"/><stop offset="1" stop-color="#42c4dd"/></linearGradient><linearGradient id="linear-gradient-5" x1="0" y1="158.76" x2="1200" y2="158.76" gradientTransform="matrix(1, 0, 0, 1, 0, 0)" xlink:href="#linear-gradient-4"/><linearGradient id="linear-gradient-6" y1="180.94" x2="1200" y2="180.94" gradientTransform="matrix(-1, 0, 0, 1, 1200, 0)" gradientUnits="userSpaceOnUse"><stop offset="0" stop-color="#50c8e8"/><stop offset="0.08" stop-color="#5dcbe9"/><stop offset="0.35" stop-color="#7fd4eb"/><stop offset="0.59" stop-color="#99dbed"/><stop offset="0.82" stop-color="#a8dfee"/><stop offset="1" stop-color="#ade0ee"/></linearGradient><linearGradient id="linear-gradient-7" x1="3389.78" y1="222.9" x2="4589.78" y2="222.9" gradientTransform="translate(-3389.78)" xlink:href="#linear-gradient-4"/><linearGradient id="linear-gradient-8" x1="0" y1="315.05" x2="1200" y2="315.05" gradientTransform="matrix(-1, 0, 0, 1, 1200, 0)" xlink:href="#linear-gradient-4"/><linearGradient id="linear-gradient-9" x1="0" y1="202.29" x2="1200" y2="202.29" gradientTransform="matrix(-1, 0, 0, 1, 1200, 0)" xlink:href="#linear-gradient-2"/><linearGradient id="linear-gradient-10" y1="177.89" y2="177.89" gradientTransform="matrix(1, 0, 0, 1, 0, 0)" xlink:href="#linear-gradient-3"/><linearGradient id="linear-gradient-11" x1="3389.78" y1="229.67" x2="4589.78" y2="229.67" gradientTransform="translate(-3389.78)" xlink:href="#linear-gradient-4"/><linearGradient id="linear-gradient-12" x1="0" y1="276.41" x2="1200" y2="276.41" gradientTransform="matrix(-1, 0, 0, 1, 1200, 0)" xlink:href="#linear-gradient-4"/><linearGradient id="linear-gradient-13" y1="295.54" y2="295.54" gradientTransform="matrix(1, 0, 0, 1, 0, 0)" xlink:href="#linear-gradient-6"/><linearGradient id="linear-gradient-14" x1="3389.78" y1="331.73" x2="4589.78" y2="331.73" xlink:href="#linear-gradient-4"/><linearGradient id="linear-gradient-15" x1="0" y1="372.41" x2="1200" y2="372.41" gradientTransform="matrix(1, 0, 0, 1, 0, 0)" xlink:href="#linear-gradient-4"/></defs><title>bg</title><g class="cls-1"><g id="Background"><rect class="cls-2" x="1.33" y="0.58" width="1200" height="451"/><g class="cls-3"><path class="cls-4" d="M1198.67,200.11V.91S1060.37-2.28,635-1C422.33-.28,209.67-2.53,0-1L-1.33,200.11Z" transform="translate(1.33 1.53)"/><path class="cls-5" d="M0,114.27v-87S140.33-25,565,13.44C786.35,33.45,939.67-2.92,1200-1V114.27Z" transform="translate(1.33 1.53)"/><path class="cls-6" d="M1200,177v-87S984.37-20.4,447.54,63.77C228.27,98.16,89.46,23.33,0,63.77V177Z" transform="translate(1.33 1.53)"/><path class="cls-7" d="M0,119.33v12.13s273.76,53.11,498.47,11.27c325.89-60.67,560.81-33.52,701.53,11V84.95S922.29,10.12,691,58.66C482.76,102.34,308.73,147.65,0,119.33Z" transform="translate(1.33 1.53)"/><path class="cls-8" d="M0,204.28v-90s35-25.48,278.72,19.49C466.87,168.47,857.91-51.55,1200,114.28V182Z" transform="translate(1.33 1.53)"/><path class="cls-9" d="M0,248.77v-62.7s242.35,22.25,602.44-66.74S1127.67,82.93,1200,97.08V248.77Z" transform="translate(1.33 1.53)"/><path class="cls-8" d="M0,204.28v12.13S271.12,240,495.82,198.21c325.89-60.67,563.46-32.36,704.18,12.13V169.9S922.29,95.07,691,143.6C482.76,187.28,308.73,232.59,0,204.28Z" transform="translate(1.33 1.53)"/><path class="cls-10" d="M1200,253.38v-87S984.37,56,447.54,140.13C228.27,174.51,89.46,123,0,163.43v90Z" transform="translate(1.33 1.53)"/><path class="cls-11" d="M0,295.34v-87S215.63,97.91,752.46,182.09c219.27,34.38,358.08-40.45,447.54,0V295.34Z" transform="translate(1.33 1.53)"/><path class="cls-7" d="M1200,230.62v12.13S926.24,295.86,701.53,254C375.64,193.35,140.73,220.51,0,265V196.24s277.71-74.83,509-26.29C717.24,213.62,891.27,258.93,1200,230.62Z" transform="translate(1.33 1.53)"/><path class="cls-8" d="M1200,315.57V216.47s-85.44-36.4-357,16.18C655.08,269,342.08,99.17,0,265v28.31Z" transform="translate(1.33 1.53)"/><path class="cls-12" d="M1200,450V297.36s-242.35,22.25-602.44-66.74S72.33,194.22,0,208.37V450Z" transform="translate(1.33 1.53)"/><path class="cls-8" d="M1200,315.57V327.7s-271.12,23.64-495.82-18.2C378.29,248.83,140.73,277.14,0,321.63V281.18s277.71-74.83,509-26.29C717.24,298.57,891.27,343.88,1200,315.57Z" transform="translate(1.33 1.53)"/></g><g class="cls-3"><path class="cls-13" d="M0,310.83V139s147-80,565-12c218.4,35.53,446-80,635-10.71v194.5Z" transform="translate(1.33 1.53)"/><path class="cls-14" d="M1200,238V163s-147-80-565-12C416.6,186.58,189,71,0,140.34V238Z" transform="translate(1.33 1.53)"/><path class="cls-15" d="M0,292.16v-75s215.63-95.28,752.46-22.67c219.27,29.66,358.08-34.89,447.54,0v97.69Z" transform="translate(1.33 1.53)"/><path class="cls-7" d="M1200,242.39v10.47s-273.76,45.81-498.47,9.72C375.64,210.25,140.73,233.67,0,272.05V212.74s277.71-64.55,509-22.68C717.24,227.73,891.27,266.82,1200,242.39Z" transform="translate(1.33 1.53)"/><path class="cls-8" d="M1200,315.67V238s-35-22-278.72,16.81C733.13,284.78,342.09,95,0,238v58.44Z" transform="translate(1.33 1.53)"/><path class="cls-16" d="M1200,354V300s-242.35,19.2-602.44-57.57S72.33,211,0,223.2V354Z" transform="translate(1.33 1.53)"/><path class="cls-8" d="M1200,315.67v10.47s-271.12,20.39-495.82-15.7C378.29,258.1,140.73,282.52,0,320.9V286s277.71-64.55,509-22.68C717.24,301,891.27,340.09,1200,315.67Z" transform="translate(1.33 1.53)"/><path class="cls-17" d="M0,358V283s215.63-95.28,752.46-22.67c219.27,29.66,358.08-34.89,447.54,0V358Z" transform="translate(1.33 1.53)"/><path class="cls-18" d="M1200,394.22v-75s-215.63-95.28-752.46-22.67C228.27,326.19,89.46,261.64,0,296.53v97.69Z" transform="translate(1.33 1.53)"/><path class="cls-7" d="M0,338.39v10.47s273.76,45.81,498.47,9.72c325.89-52.34,560.81-28.91,701.53,9.47V308.74s-277.71-64.55-509-22.68C482.76,323.73,308.73,362.82,0,338.39Z" transform="translate(1.33 1.53)"/><path class="cls-8" d="M0,411.67V326.19s85.44-31.4,357,14c187.91,31.38,500.91-115.14,843,27.9v24.42Z" transform="translate(1.33 1.53)"/><path class="cls-19" d="M0,450V396s242.35,19.2,602.44-57.57S1127.67,307,1200,319.2V450Z" transform="translate(1.33 1.53)"/><path class="cls-8" d="M0,411.67v10.47s271.12,20.39,495.82-15.7C821.71,354.1,1059.27,378.52,1200,416.9V382s-277.71-64.55-509-22.68C482.76,397,308.73,436.09,0,411.67Z" transform="translate(1.33 1.53)"/></g></g></g></svg>