<svg id="Calque_1" data-name="Calque 1" xmlns="http://www.w3.org/2000/svg" viewBox="0 0 595.64 584.54"><defs><style>.cls-1{fill:#71bd63;stroke:#fff;stroke-width:0.5px;}</style></defs><title>france2016Low (1)</title><g id="FR-A"><path class="cls-1" d="M389.74,85.06l1.82,1.47-5.13,5.06L386,94.47l-3.8.71,2.26,3.25-1,7.58a16.26,16.26,0,0,1,1.88,3.59,14.19,14.19,0,0,1,.29,10.52c-1.82,4.81-.68,9.29,2,13.44a7.33,7.33,0,0,0,5.13,3.22c3.46.61,6.87,0,10.27-.37a107.61,107.61,0,0,1,22.26-.16A45.18,45.18,0,0,0,452,131.19a33.38,33.38,0,0,1,9.79-3.82c12.53-2.19,24.68-1.25,36.26,4.4a37.85,37.85,0,0,1,10.48,7.53,39.72,39.72,0,0,0,16,9.86,27.39,27.39,0,0,1,4.19,1.78c3.24,1.74,5.15,4.5,4.8,8.19a102.4,102.4,0,0,1-2.07,13,127.81,127.81,0,0,1-4,14A35.3,35.3,0,0,0,526,204.58a13.77,13.77,0,0,1,0,5.21,8.31,8.31,0,0,1-5.38,6c-1.78.71-3.61,1.28-5.43,1.88a41.86,41.86,0,0,0-8.88,4l2.94.5,1.93,5.51,2.88.54-1.32,3.07,3,1.38,5.95-.67,2.87-2.37-1-1.48L526,229l1.75-2.78-1.31-.71,3.5-2.21-3-7.48,1.51-2.23.36-9,2.73-5.74L529.38,195l.3-5.35,4.83-11.27,2.14-1.58-.51-4.19,4.42-15.42,5.51-7.29,4.88-2.84,5.73-10.83-1.15.43L544.49,131l-2.8,1.54-3-2-2.45,1.4-4.23-.69-4.37-2.69L526.23,124l-2.42.27.38-1.21-3.32.78-2.95,3.57-5.68-.35-2.4-2.24-2,2.63-.72-4.86-4-2-4.16.64-.11,3.77-4-.7L492,117l-4.27-4.25,1.4-1.19-2.43-4.23-4.79-2.83-3.84.6-3.91-3-8.24,4.23-2.56-.25-.57-2.67-4-.34-4-4.11-1.12,1.54-4.3-.71-1.29,2.73-2.28-1.45-3.48,2-1.79-6.26-3.38-2.23-1.41,1.26.73-2.74-2.58-2.72-4.28.21-3-4.45-4.1-2.39-6,.46-.19-4.74L418,76.76,414,72.95l2.14-4.46-.88-1.73,3.16-4.63-2.89-2L410,65.46l0,5.75-10.22,3.74-5.66-2-3.23.68.88,5.82Z" transform="translate(-16.57 0.3)"/><path class="cls-1" d="M365.84,185.38l1.53,3.1,3.37-1.59-.36,2.07,2.14.91,3.35,6.37-.83,2,1.78-1.15.78,1.35-.78,3.11,6.22.25.64-1.27,2.08,1.22,2.37-2.08,1.46,1.12,1-1.89.76,2.59,2,.31.9-2.25,10-.41-.78-2.39,1.77-1.4,8.9,1.44-.35,2.69,3.35,1.36-1.4,2,3-.76,3.7,7-3.18,2.52,1.79.31.41,4.68,2.5-1.5,3.69,3.94,2.53-2.08-.2,1.73,1.42.73c.26-4.07.37-8.15.4-12.23a15,15,0,0,0-5.57-11.75,24.81,24.81,0,0,0-3.86-2.82A50.25,50.25,0,0,0,401.7,186c-7.36-.68-14.7-.15-22,.34a25.12,25.12,0,0,1-15.09-3.4l-.87,2.76Z" transform="translate(-16.57 0.3)"/><path class="cls-1" d="M530.21,162.55c.92-6.47-.11-8.23-6.33-10.39a45,45,0,0,1-17.79-11,36.54,36.54,0,0,0-12.8-8.28,55.73,55.73,0,0,0-20.65-3.61,40.29,40.29,0,0,0-20.45,5.09,38.06,38.06,0,0,1-9.15,3.47,49.24,49.24,0,0,1-19.26,1.29c-6.3-.87-12.61-.44-18.91.1-3.5.3-7,.64-10.52.68a10.68,10.68,0,0,1-10.11-6.1,22.91,22.91,0,0,1-1.91-5.14,49.6,49.6,0,0,1-.75-5.55,30,30,0,0,0-8.92-1.24,20,20,0,0,0-4.53.49l2.59,2.26-5.25.54-.89,1.95,1.55,2.68-2.2,2.54,2.72-.39,1.13,1.82-8,10.2.07,2.4-3.47.33,1.66,1.15-2,2,3.07,1.27-.72,6.44,3.46-.7,1,1.87-3.94,2.87.67,1.81-3.09.86,1.31,2.34-2.27.67,1.31,5.6q1.11.84,2.18,1.73l1.54-.24,3.67,4.68a22.92,22.92,0,0,0,15.63,4.27c6.05-.42,12.14-.53,18.21-.52a47.45,47.45,0,0,1,14.86,2.37c5.18,1.71,10.22,3.73,14.49,7.27a18.8,18.8,0,0,1,7.32,14.49,141.13,141.13,0,0,1-.59,15.63l1.92-1.51,1.37,1.31,2.69-5.29,4.39.23,1.74-2.12,1.22,2.17,3.9-.77v-8.37l2.1,0,.8-2.44,2.78.45,4.37-7.72.7,2.57,3.74-4.18,4-1,2.86,5.4,7.68-1.77,3.7,4.63,5.35-3.67,10.73,10,6.2,2.44,1.36,3.75-.3.83c.64-.31,1.28-.6,1.95-.87,3-1.18,6-2.17,9-3.27,4.18-1.53,5.52-3.79,4.75-8.1a38.84,38.84,0,0,1,1.59-20.76A107.26,107.26,0,0,0,530.21,162.55Z" transform="translate(-16.57 0.3)"/><path class="cls-1" d="M382.7,111.88l-4.69-3-2.84,1.69-.18,2.25-3-.73-5.51,2.72.27,4.77c.49-.1,1-.18,1.48-.24a63.43,63.43,0,0,1,8.82-.15,46.85,46.85,0,0,1,5.32.77,10.59,10.59,0,0,0,.44-8.66Z" transform="translate(-16.57 0.3)"/></g><g id="FR-B"><path class="cls-1" d="M163.74,331.29l.06,5.54.68.32q.28-2.1.67-4.21l.38-2.06Z" transform="translate(-16.57 0.3)"/><path class="cls-1" d="M182.44,258.09l-4.5,1.88,3.67,3.26-1,2.19,5.52,4.53-.89,3.26,3.45,5.55-.9,1.63,1.78.88-.75,9.06c5.92-2.6,11.84-5.2,17.73-7.85a17.69,17.69,0,0,0,8.23-7.1,42.42,42.42,0,0,0,4.12-8.61c1.35-4.31,2.53-8.67,3.68-13l.09-2.32-4.22-.24-1.09-2.73-2.58.24-1.21,4.48-2.08-.86-1.79,2.83-2.07-1,1.52-2-1.72-.3-8.82,1-3.51,2.3.9-1.71-1.46-.12L192,254.52l.53,1.92-2.29,2.16Z" transform="translate(-16.57 0.3)"/><path class="cls-1" d="M164.75,328.45a4.66,4.66,0,0,1-1.64-.75l.91,2.8Z" transform="translate(-16.57 0.3)"/><path class="cls-1" d="M160.06,317.69a24.12,24.12,0,0,1,2.34,3.41c.59,1,1.07,2.15,1.7,3.17a1.8,1.8,0,0,0,1.69,1.05l-3-6.19Z" transform="translate(-16.57 0.3)"/><path class="cls-1" d="M176.47,296.47l0-.09-7.73,3.27.2,3.4-5.29,5.76,3.65.4-1,1.15,1.87.65,1.66,3.88c.5-2.7.83-5.44,1.07-8.18A14,14,0,0,1,176.47,296.47Z" transform="translate(-16.57 0.3)"/><path class="cls-1" d="M319.83,339.24a96.42,96.42,0,0,1-9.83,9.22,29.44,29.44,0,0,1-12.33,6.14,20.83,20.83,0,0,0-10.09,5.74c-.86.84-1.67,1.72-2.52,2.57-3.59,3.54-7.76,5.25-12.85,4.1-3.82-.86-7.25.2-10.53,2.13a4.62,4.62,0,0,0-2.51,4.86c.66,9.51,1.21,19,1.79,28.54l.09,0,1.81-5.61,7-4.09-.73-3.25,5.88-4.86-1.3-7.4,5.21-2.46,4,.84,7.09,6.43,4.4-3.21,1.65,1.48,4.7-1.38,3.38-1.49-1.84-3.43,3.09-1.3.27-3.23,2.19-1.67-1.59-3.3,6.89-6.78-.47-4.44,5.48,2.47,2-1.3L318.4,353l1.25-8-2.34-2.48,2.51-2.73Z" transform="translate(-16.57 0.3)"/><path class="cls-1" d="M203.17,492.33l4.49-2.63-.54-3.53,3.14-3.73,2.05.17-.22-2.61,2.32-2.71-1.2-1.76,3.15-2.55-1.26-5.64-2.76,2,.06-3,2-.51-3.24-6.27-5.9,0-1.7-2,1.24-5.08,2.29-1.72-1.32-4.06,1.38-.1.29-3.34-2.21-1.68,1.12-1.08-.26-.15c-5.8-3.53-10.49-8.12-13.17-14.49-1.88-4.49-5.35-7-9.89-8.34l-1.15-.34c-8.12-2.3-13.56-7.19-15.24-15.69-.7-.41-1.37-.85-2.07-1.25l-1.59,4.06-1.66,19.24-6.21,32.32L148.69,468l-2.79,2.55-5,.85.07,1.33,2.39,3.1,4.36-.6.65,3.06.06,0,3-2.35,6.08,2,.27,3.9-.52.79q12,6,24,12l2.6-.27.41,1.79.22.11A100.4,100.4,0,0,0,200,502.95l2.15-1.81Z" transform="translate(-16.57 0.3)"/><path class="cls-1" d="M260.49,286.43l-3,0-.23-1.85-4.31-2.05L253,275l-8.64-10.67-.53-4.27-5.14-2,1.26,3-11.4,1.61-.85-7.33-2.28-.21-.14.52c-1.36,4.84-2.68,9.71-4.36,14.45-2.59,7.33-7.3,12.87-14.63,16-1.77.74-3.48,1.62-5.24,2.38q-6.26,2.7-12.53,5.37l-.08,1,1.48-1,2.77,1.74-7.58,5-3.23-2.39-.51.18a6.31,6.31,0,0,0-.14.85,50,50,0,0,1-10.35,25.92,8.34,8.34,0,0,0-1.52,2.91c-.74,3-1.44,6.07-1.89,9.15-.07.46-.13.91-.18,1.36l5.29,2.48,2.22,3.68,7.77,5.89,4.84,19.75,3.47,6.39-4.41-4.21-4.79-15.18-10.89-9.76.24-3.66-4,5.79L167,351a54.89,54.89,0,0,0,3,14.45c2.28,6.39,4.07,12.95,6.08,19.43a2.49,2.49,0,0,0,.34.56c.13,0,.22,0,.27,0a7.07,7.07,0,0,0,.84-.44,19.07,19.07,0,0,1,14.89-2.78,42,42,0,0,0,8.8.86,32.47,32.47,0,0,0,16.39-4.75,30.26,30.26,0,0,1,22.67-3.51c5.34,1.15,9.73-.25,13.9-3.39a4.49,4.49,0,0,0,1.93-4c.05-11.67,0-23.35.45-35a106.86,106.86,0,0,1,7-35.36c.58-1.48,1.2-2.95,1.8-4.42v0Z" transform="translate(-16.57 0.3)"/><path class="cls-1" d="M173.2,385.94c-1.87-6-3.36-12.18-5.57-18.07-.66-1.74-1.21-3.49-1.69-5.24L163,395.95l1.54.76,2.11-6,2.8,2.34a18.89,18.89,0,0,1,2.74-3.49A3.25,3.25,0,0,0,173.2,385.94Z" transform="translate(-16.57 0.3)"/><path class="cls-1" d="M167.23,398l.07-.21-.76-.13Z" transform="translate(-16.57 0.3)"/><path class="cls-1" d="M260.28,366.48a17.3,17.3,0,0,1,13.11-2.34,9.56,9.56,0,0,0,8.64-2.52c1.26-1.1,2.37-2.37,3.58-3.55a22.12,22.12,0,0,1,10.66-6.19c5.53-1.19,10-4,14.15-7.69a110.05,110.05,0,0,0,9-9l-5.15-6.26,7-5.25.33-2.56,2-.91-.41-3.75-5-14.64L310.7,298l1.32-1.74-1.93-.55-.29-2.3-8,.58-4.55-2-5.8,1-2.33-1.85-2.24,4-1.8-1.69-2.37,1.82-.79-2-2.68,1.73-.78-2-4.6,4.83-2.55-3.22-2.1,1.7-2.13-.14A110.63,110.63,0,0,0,260,326.46c-1.37,13.08-1,26.21-1,39.32,0,.31.06.62.13,1.22C259.72,366.74,260,366.64,260.28,366.48Z" transform="translate(-16.57 0.3)"/><path class="cls-1" d="M158.91,491l.4-3.74.32-.14-4-2L154,487.62l1.37,2.38Z" transform="translate(-16.57 0.3)"/><path class="cls-1" d="M177.48,299.66a10,10,0,0,0-3.45,6.62c-.29,2.3-.59,4.59-.86,6.89-.08.67-.1,1.35-.15,2a39.4,39.4,0,0,0,5.28-15.82Z" transform="translate(-16.57 0.3)"/><path class="cls-1" d="M193.18,503.72q-2.56-1-5.07-2.21l4.08,3.66Z" transform="translate(-16.57 0.3)"/><path class="cls-1" d="M168.49,491.53q-3.24-1.64-6.48-3.26l-.77-.37-.47.84,6.92,3.42Z" transform="translate(-16.57 0.3)"/><path class="cls-1" d="M256.47,380c-.13-1.9-.21-3.81-.32-5.79a2.5,2.5,0,0,0-.57,0c-.27.16-.54.33-.81.51a18.4,18.4,0,0,1-15.22,3,27.9,27.9,0,0,0-20.37,3.12,48,48,0,0,1-9,3.88,35.51,35.51,0,0,1-18.72.41c-5.19-1.18-9.6.35-13.71,3.38a3.46,3.46,0,0,0-1.46,2.32,15.37,15.37,0,0,1-3.33,7.39l.46.59-.89-.15a12.19,12.19,0,0,1-1.65,1.45,2.09,2.09,0,0,0-.88,2.27,9.41,9.41,0,0,0,2.12,4.75c2.74,3.36,6,6,10.33,7a18.58,18.58,0,0,1,13.67,11.24c3,6.85,8.52,11.21,15.18,14.15l2.33-3,1.78,1.74-1.15,1.43,2.79,1.58.53.08-.13-3.52,3-2.32,1.23,1.66,3.09-2.83,2.89,1.8,12.15-5.18,2.94,3.22,5.62-5-.36-1.87,4.35.33L250.62,425l2.21-.37,1.83-4.82-3.37-2.06,1.12-4.1,1.88,2.08,4.37-1q0-1.16-.08-2.32l-2.6-8.11,2.06-.69Q257.26,391.77,256.47,380Z" transform="translate(-16.57 0.3)"/><path class="cls-1" d="M160.48,323.92a19,19,0,0,0-3.39-4.94l.46,2.35Z" transform="translate(-16.57 0.3)"/><polygon class="cls-1" points="143.65 310.18 146.6 309.16 141.84 306.39 139.36 306.84 139.87 305.11 136.31 306.18 136.37 303.5 133.77 304.24 134.88 306.81 143.65 310.18"/><path class="cls-1" d="M163.36,400.07l.17-.47h0l-.62-.29Z" transform="translate(-16.57 0.3)"/></g><g id="FR-C"><path class="cls-1" d="M329.84,325.06c.47-.27.91-.6,1.48-1a64.59,64.59,0,0,0-6.74-15.38,38.71,38.71,0,0,0-7.56-8.6,78.5,78.5,0,0,1-7.11-6.85l-.11.19.29,2.3,1.93.55L310.7,298l7.48,3.77,5,14.64.41,3.75-2,.91-.33,2.56-7,5.25,5.15,6.26c1.33-1.48,2.63-3,3.89-4.53A23.87,23.87,0,0,1,329.84,325.06Z" transform="translate(-16.57 0.3)"/><path class="cls-1" d="M453.31,376.52a22.24,22.24,0,0,0,1.78,1.61,11.77,11.77,0,0,1,4.43,9.44c0,1.35,0,2.7-.06,4.05l2.72,0,1.21-1.23L462.11,389l2.83-1.8,1.61,1.14,3.22-2.82,4.71.72,1.83-1.28,2.67,1.11-1.32-8.41-5-1,1.71-6.12,3.64-.16,1.31,3.11,3.58,1.07,2.47-3.36,5,0,1.89-1c-.35-1-.71-2-1.06-2.94-.67-1.88-1.26-3.8-2-5.65a3.08,3.08,0,0,0-3.55-2.21,13.23,13.23,0,0,0-1.66.26c-5.39,1-10.79,1.37-16.18,0a14,14,0,0,0-7.56.42,24.47,24.47,0,0,0-7.89,4.44c-1.44,1.12-2.45,2.21-1.58,4.2a5.87,5.87,0,0,1,.1,2.14A7.91,7.91,0,0,0,453.31,376.52Z" transform="translate(-16.57 0.3)"/><path class="cls-1" d="M410.7,301.91l-1.28-1.65-.92.88q.6.85,1.27,1.62Z" transform="translate(-16.57 0.3)"/><path class="cls-1" d="M342.36,309.25c5.1,1.61,10.21,3.2,15.34,4.72,1.08.32,2.26.83,3.66-.08a36.76,36.76,0,0,0-1.35-3.77c-1.21-2.52-2.51-5-3.84-7.46a118.36,118.36,0,0,1-8.8-19.92q-1.4-4.39-3.16-8.59L341,270.84l-4.59.12L333.28,275l-3.54.53-1.88-1.71-3.79,3.32.15,1.91h-2.4l1.85,6.37-3.25,2.06-6.68.13a115.61,115.61,0,0,0,7,11,8.83,8.83,0,0,0,1.94,2.08,40.38,40.38,0,0,0,10.58,5.54C336.3,307.23,339.32,308.29,342.36,309.25Z" transform="translate(-16.57 0.3)"/><path class="cls-1" d="M374.63,346.33a20.32,20.32,0,0,0-2.56-1.31,47.57,47.57,0,0,0-22.22-3.88c-4.3.32-8.41,1.52-12.87,2.53.26,3.68.37,7.19.79,10.66.75,6.09,2.37,11.9,6.13,16.93a11.74,11.74,0,0,1,1.48,3.24c.88,2.57.21,5-.69,7.47-.37,1-.7,2-1,3l.27-.76,1.17-1,2.5,2.4,2.08-4.26,1.82.51,3.55-2.82,4.79,9.85,4.25-1.14.2-2.9h2.51l.53,2.75,3.19-.54,5.49,5.71,1.15,8.48,6.89,11-.87,5,3.4-1,5.28,4.14,2.87-4.24,2.73-.48.15,3.24,1.76.42.63-3.19,2.16-.31,3.41,2.41a51.75,51.75,0,0,0,2.23-16q-.25-14.39-.44-28.77a25.71,25.71,0,0,1,2.21-11.2c.43-.94.81-1.91,1.15-2.89.62-1.8.19-2.58-1.72-2.71-3.19-.22-5.94.63-8,3.34a24.2,24.2,0,0,1-4.3,4.45c-5.23,4.06-11.52,3.2-15.71-1.93a11.06,11.06,0,0,1-2.46-8.73C379,350.32,377.4,348,374.63,346.33Z" transform="translate(-16.57 0.3)"/><path class="cls-1" d="M441.92,322.86c2.37-3,1.83-4.81-1.8-6-.78-.25-1.59-.37-2.76-.64,1.71,4,.93,7.4-.74,10.77A13.79,13.79,0,0,0,441.92,322.86Z" transform="translate(-16.57 0.3)"/><path class="cls-1" d="M446.33,318.54a13,13,0,0,1,2.32,0,94.78,94.78,0,0,0,23.17,1.28,24.59,24.59,0,0,1,7.12.79A42.43,42.43,0,0,1,497,330.11c.34.29.68.58,1,.86l.22-2.7,5-.6,4.29-4.55-4.45-8.35-2.65.69,1.05-4.34-4.2-.78,2.81-8.53-3.9-4.46,2.05-4.3-12.5-1.79L474.7,297l-1.33,2.89,1.67,3.62,2-.28-.59,1.85-6.93,5.1-7.1.68.94-5.28,6-2.06-.93-2,2.81-4.91-4.37-3-8.11,9.06-6,.23-.48-2.9-2.94-2.12-4.32,4.56-2.71.25-.24-2.88q-1,1.72-2,3.38c-1.06,1.6-2.1,3.21-3.08,4.86a6.05,6.05,0,0,0-.83,4.64C440,314.08,444.87,313.75,446.33,318.54Z" transform="translate(-16.57 0.3)"/><path class="cls-1" d="M334.2,344.62a3.3,3.3,0,0,0-.54-2.18c-1.72-1.75-1.77-3.83-1.62-6,.14-2,.26-4,.29-6a21.69,21.69,0,0,0-.36-2.93,16.6,16.6,0,0,0-6.16,4.92q-2.89,3.51-6,6.82v.54l-2.51,2.73,2.34,2.48-1.25,8,1.69,1.6-2,1.3-5.48-2.47.47,4.44-6.89,6.78,1.59,3.3-2.19,1.67-.27,3.22-3.09,1.3,1.84,3.42L300.7,379l1.23,6,3.34,4.94-1.74,5.36,3.25,4.64.31-1.88,3.31-1.12,2.38,1.62,5.46-.59,3.17-4,1.85-7.33,5.5-5.58,1.49,5,3.6-1.08,4.64,12.26a48.64,48.64,0,0,1,3.49-16.5,8,8,0,0,0-1-8.36,32,32,0,0,1-5.33-12.47A64.85,64.85,0,0,1,334.2,344.62Z" transform="translate(-16.57 0.3)"/><path class="cls-1" d="M408.14,420h0v0Z" transform="translate(-16.57 0.3)"/><path class="cls-1" d="M443.57,362.37c1.56.59,3.13,1.14,4.67,1.69,1.74-1.33,3.38-2.74,5.17-3.92a20,20,0,0,1,16-3.23,27.57,27.57,0,0,0,6.42.58,51.42,51.42,0,0,0,7.38-.75c5.64-.93,7.69.23,9.56,5.66.16.45.3.91.46,1.36.6,1.69,1.21,3.37,1.82,5.05l1-.54,5.21,1.34v-1.86l2.18-.08,2.33-3,3.33.2,2.21-2.31-1-4.21,2.69-4.84-2.51-1.39-.62-2.15-4.14-2.09v-8l-3.51-.71-4.49-4.38,0-.39q-1.64-1.15-3.22-2.47c-7.16-6.05-15.2-9.62-24.76-9.12a87.53,87.53,0,0,1-19.36-1l-4.15-.7a15.55,15.55,0,0,1-5.8,7.17,42.63,42.63,0,0,1-4.66,2.94,2.28,2.28,0,0,0-1.4,2.24c-.06,5.59-.14,11.18-.3,16.76a9.3,9.3,0,0,0,1.47,5.45A16.12,16.12,0,0,0,443.57,362.37Z" transform="translate(-16.57 0.3)"/><path class="cls-1" d="M437.45,423.23l1.16,3.41,3,2.08,3.59-.77,2.5-3.39,1.72,1.14,1.79-1.42V420.2l-3.26-2.27.88-1.58-5.65-.24L440.57,414,440.1,411l3.27-.69-1.66-3.59,6.48,1.61,2.07-1.79-2.78-2.41,1.91-6.26,6.08-.09,1-1.21q0-.73,0-1.46l-.58-.41.6-1.6c0-.93,0-1.85,0-2.78,0-1.36-.07-2.71-.14-4.07a7.58,7.58,0,0,0-2.59-5.24c-.81-.77-1.69-1.48-2.48-2.26a10.83,10.83,0,0,1-3.35-7.47c-.17-4.09-.42-4.41-4.41-5.73a19.39,19.39,0,0,1-10.29-7.85,12,12,0,0,1-2.1-7.71c.26-3.67.42-7.35.51-11,0-1.74-.18-3.49-.29-5.36-2.64.63-5.07,1.31-7.53,1.78a30.8,30.8,0,0,1-16.53-1.3c-2.48-.9-4.91-1.92-7.36-2.89a120.59,120.59,0,0,0-44.46-8.66A57,57,0,0,0,337,325.2c-.67.22-1.32.51-2.07.8,0,4,0,7.85,0,11.74,0,2.2.75,2.92,2.94,2.53,2.67-.47,5.31-1.17,8-1.62a46.26,46.26,0,0,1,22,1.66,51.72,51.72,0,0,1,7.13,2.79c4.67,2.31,7.19,6,6.43,11.42-.65,4.64,3.42,8.21,6.37,9.08a6.8,6.8,0,0,0,5.35-.58,15.28,15.28,0,0,0,5.31-4.76,11.63,11.63,0,0,1,11.82-4.59c2.93.68,4.29,2.83,3.53,5.73a15.21,15.21,0,0,1-1.1,2.91c-2.11,4.21-2.42,8.71-2.34,13.32.17,9.76.24,19.51.31,29.27a42.22,42.22,0,0,1-1.58,11.78l4.79.81,1.26,5,10-4.63,2,1.74,2.42-2.16-.61,4.8Z" transform="translate(-16.57 0.3)"/><path class="cls-1" d="M429.52,311.83a24.36,24.36,0,0,0,2.89.42c.8-2.22,1.36-4.22,2.23-6.07a32.48,32.48,0,0,1,2.69-4.25q1-1.46,1.85-3l-.84-3.27-3.23-1.85.64-2-3.26-.7-1.4-3-6,1.48-4.77-2.08-6.24,19a23.28,23.28,0,0,0,4.85,2.42A108.83,108.83,0,0,0,429.52,311.83Z" transform="translate(-16.57 0.3)"/><path class="cls-1" d="M355.34,319.58a119.52,119.52,0,0,1,37.73,6c5.08,1.66,10,3.75,15,5.62,7.59,2.82,15.08,2.11,22.47-.8a3.18,3.18,0,0,0,1.54-1.33c.93-1.76,1.72-3.6,2.54-5.42a7.47,7.47,0,0,0,.1-5.82,3.71,3.71,0,0,0-3.48-2.69,55.84,55.84,0,0,1-13-3.13,25.62,25.62,0,0,1-13.34-10.92l-.12-.1-2.67,1.57L398,300.88l-1.37,6.58-3.8,1.72-3-2.23-9.06,1.51-.69-2-3.42-.7,0-4.24,4.71-2.53-.21-8.06L379.12,289l-3.36.29-1.25-2.6-4-.43-.23-3.82-4.65-9.22-1.5-.42-1.16,4.39-4.32,2.26-1.51-3.77-3.06,1.81-3.22-2-2.13,1.81c.47,1.27.92,2.56,1.34,3.85a106.68,106.68,0,0,0,6.64,15.91c2.06,4,4.18,7.92,6.12,11.95a13.65,13.65,0,0,1,1.29,4.57c.24,2.56-1.4,4-4,3.86a11.85,11.85,0,0,1-2.83-.49q-14.14-4.56-28.25-9.19c-.4-.13-.82-.21-1.2-.31l6.53,15.27a3.72,3.72,0,0,0,.68-.11A61.46,61.46,0,0,1,355.34,319.58Z" transform="translate(-16.57 0.3)"/><path class="cls-1" d="M411.75,304.62l-.6-.39c.19.18.38.35.58.52Z" transform="translate(-16.57 0.3)"/></g><g id="FR-D"><path class="cls-1" d="M341,270.84l3.25,3.32q-1.32-3.15-2.85-6.18Z" transform="translate(-16.57 0.3)"/><path class="cls-1" d="M357.37,177.24c-1-.79-1.64-1.34-2.33-1.88-.85-.66-1.72-1.29-2.59-1.9l-10.83,1.36-1.33,3.38,1.33,3.44L337,187l3.84,1.85.48,2.12C344.77,184.48,350.41,180.29,357.37,177.24Z" transform="translate(-16.57 0.3)"/><path class="cls-1" d="M364.24,179.06l-3.67-4.67-1.54.25c.91.75,1.8,1.52,2.67,2.33A26.55,26.55,0,0,0,364.24,179.06Z" transform="translate(-16.57 0.3)"/><path class="cls-1" d="M425.07,289.58l6-1.48,1.4,3,3.26.7-.64,2,3.23,1.85.84,3.27a37.11,37.11,0,0,0,3.93-9.84c1.48-6.24,1.22-12.54.48-18.84a6.15,6.15,0,0,0-.52-1.33c-.52.33-.86.52-1.18.74a48.53,48.53,0,0,1-13.35,6.41c-5.33,1.7-10.8,2.51-16.29,1.13-2.74-.69-5.32-2-8.27-3.2-1,6.77-.94,13.56,1.18,20.25a24.77,24.77,0,0,0,3.33,6.85l.92-.87,1.28,1.65-.93.85c.45.52.91,1,1.4,1.49l.58.38,0,.13a20.78,20.78,0,0,0,2.33,1.79l6.24-19Z" transform="translate(-16.57 0.3)"/><path class="cls-1" d="M500.16,210.59l-10.73-10-5.35,3.67-3.7-4.63-7.68,1.77-2.86-5.4-4,1-3.74,4.18-.7-2.57-4.37,7.72-2.78-.45-.8,2.44-2.1,0v8.37l-3.9.77-1.22-2.17-1.74,2.12-4.39-.23-2.69,5.29-1.37-1.31-1.92,1.51c-.23,2.77-.48,5.53-.72,8.3-.34,4-.84,8-1.05,11.94-.25,4.71,1.36,8.54,5.56,11.2a16.67,16.67,0,0,1,4,4,51.29,51.29,0,0,1,3.11,5.2c.65-.52,1.3-1,1.88-1.51,5.74-5.22,11.52-10.39,17.17-15.7a50.64,50.64,0,0,1,15.52-10.23,62.79,62.79,0,0,0,19.5-12.45,32.64,32.64,0,0,1,8.26-5.73l.3-.83L506.36,213Z" transform="translate(-16.57 0.3)"/><path class="cls-1" d="M442.11,299.88l.24,2.88,2.71-.25,4.32-4.56,2.94,2.12.48,2.9,6-.23,8.11-9.06,3.82-7.76L468.78,284l14.19-12,.5-6.89-1.34-2.36,11.94-7.45-.68-1.9,10.48-9.78-.51-2.72,4.67-2.85-1.63-2.39-5.7,1.22,2.54-4.9,2.57-1.27L505,228.3l6.21-.55-1.93-5.51-2.94-.5a36.31,36.31,0,0,0-6.12,4.67A58,58,0,0,1,482.14,238a54,54,0,0,0-17.07,11.32c-5.65,5.42-11.55,10.6-17.43,15.78a3.51,3.51,0,0,0-1.31,3.68c1.24,8,1.38,15.92-1,23.75A39,39,0,0,1,442.11,299.88Z" transform="translate(-16.57 0.3)"/><path class="cls-1" d="M402,294.12a46.48,46.48,0,0,1-1.09-19c.37-2.72.5-5.11-1.65-7.22a15.86,15.86,0,0,1-2.08-3.21c-4.78-7.86-9.42-15.8-14.35-23.56q-6.43-10.11-13.41-19.87a44.87,44.87,0,0,0-17.32-14.46,44.63,44.63,0,0,1-8.71-5.47c-.24-.19-.47-.36-.71-.53L340,202.94l.67,7.36-7.21,1.82-.17,2.5,3.26,2.16,2.08,6.91-5.32,1.92,3.42,6.12-2.62,6.1,4.73,4.68,1.5,12,2.49,2.46-.82,5.88a100.33,100.33,0,0,1,6.63,14.5l2.13-1.81,3.22,2,3.06-1.81,1.51,3.77,4.32-2.26,1.16-4.39,1.5.42,4.65,9.22.23,3.82,4,.43,1.25,2.6,3.36-.29,2.06,1.87.21,8.06-4.71,2.53,0,4.24,3.42.7.69,2,9.06-1.51,3,2.23,3.8-1.72,1.37-6.58,4.08,1.69,2.67-1.57.13.1A29.07,29.07,0,0,1,402,294.12Z" transform="translate(-16.57 0.3)"/><path class="cls-1" d="M346.3,199.81a73.34,73.34,0,0,0,7.6,4.55,46.73,46.73,0,0,1,17.37,14.39c3.69,4.92,7.26,9.95,10.54,15.14,6.23,9.87,12.2,19.89,18.29,29.84.61,1,1.3,2,2.09,3.16,1-2.63,1.73-5,2.67-7.23a35.65,35.65,0,0,1,8-12.4,14.93,14.93,0,0,1,10.94-4.66c1.75,0,3.5,0,5.52,0,.67-7.37,1.41-14.6,1.94-21.84,0-.47.06-.94.09-1.42l-1.42-.74.2-1.73L427.6,219,423.91,215l-2.5,1.5-.41-4.68-1.79-.31,3.18-2.52-3.7-7-3,.76,1.4-2-3.35-1.36.35-2.69-8.9-1.44-1.77,1.4.78,2.39-10,.41-.9,2.25-2-.31-.76-2.59-1,1.89-1.46-1.12-2.37,2.08-2.08-1.22-.64,1.27-6.22-.25.78-3.12-.78-1.35L375,198.21l.83-2-3.35-6.37-2.14-.91.36-2.07-3.37,1.59-1.53-3.1-2.14.33.87-2.76a25.13,25.13,0,0,1-3.36-2.44c-.42-.36-.87-.69-1.3-1-7.33,3-13.49,7.15-16.57,14.52l1.51,1.3.13,3.53,0,0C345.39,199.19,345.83,199.51,346.3,199.81Z" transform="translate(-16.57 0.3)"/><path class="cls-1" d="M428.45,245.82c-4.54-.57-9-.63-12.62,2.85a35.84,35.84,0,0,0-4.53,5.24,46,46,0,0,0-6.27,14.7,2,2,0,0,0,.74,2.29,17.49,17.49,0,0,0,7.29,3.49,23.45,23.45,0,0,0,9.76,0,45,45,0,0,0,19.63-8.93c-1.3-3.59-2.88-6.77-5.91-8.8-3.56-2.39-6.09-5.35-6.89-9.66A1.84,1.84,0,0,0,428.45,245.82Z" transform="translate(-16.57 0.3)"/></g><g id="FR-E"><path class="cls-1" d="M139.18,178.34c-3.46-.41-5.81,1.24-7.78,3.76a24.43,24.43,0,0,0-4,8.13c-2.24,7.47-2.44,15.11-1.66,22.79a37.79,37.79,0,0,0,2.46,10.75l.48-5,4.51-2.7.76,1.38,3.94-2.29,8.31-.05,1.57-3.32,6.19-2.43-.24-2,9.63,3.62,3.8-11.62,5.75-2.37-3.21-14.88c-4.77-.68-9.55-1.4-14.33-2C150,179.39,144.57,179,139.18,178.34Z" transform="translate(-16.57 0.3)"/><path class="cls-1" d="M85.14,229.6l2.14.27L85.83,227l-.37-3.31,3.45-.57,5.35,1.56,4,4.1,12.69-2.33,2.85,1.59-2.52.38.26,2.58,1.56.12,1.43-1.77,4.4,1,.78-3.38,5.6,1.62.26-2,.49-.14a42.68,42.68,0,0,1-3.17-12.3,60.71,60.71,0,0,1,1.71-24.95,26,26,0,0,1,4.89-9.54c2.44-2.9,5.37-4.75,9.37-4.32,5.88.63,11.78,1.09,17.64,1.83,4.61.58,9.21,1.28,13.81,1.94l1.42-2.39-1-11.19-7.64-2.23L158.91,168l-2.8.5-2.79-1.76-3.46-9.09-8.54,1.9-3.75-2.13,1-4.65-6.15,1.81-1.26,2.78,2.53,3,.56,1.33-1.63-.87,1.86,3-1.8,2.57.52-3-3.1-5.94-4.34.34.07,1-1.19,2.62L122,157.05l-3.88,1.52,2.22-3-1.45-1.27L114.68,158l-.72-1.47-2.13.48.62,1.41-3.36,1.43-3,4.87-2.29-.66h-1.25l-1.17.49,1.11-2L98,160.13l.2-3.35-5.32-4.52.68-2.18-4.77-1.54,1.32-2.7L87,146v-3l-5.57,2.26L81.25,143,74,147.24l-4.41-2.46-2.09,3-1.34-.91,1.59,3.84-1.39,4.71-1.71-1-.86-.62-7.45-1.47-1.32,2.84-3.16.71-1.67-.71.07-3.34H48.76L46.62,155l-5.28-.67-1.5,1.77,1.13.43-4.18,1.14v-1.94L34.7,155l-3.76,1.42,1.47,1.08-5.85,0-2.83,3.79-5,1.27-1.95,2.54L17,176.7l3.82-1.62,3.05,1.06,7.63-3.58,1,.78-2.41,3.53H33.6l2.28-2.25.64,2-1.43,1,3.71,1-.54,1.19-11.4-.24L27,176l-1.63.64.07,3L23,179.8l.28,1.57,3.25.33-.64,4.9,3.95-4.27L36,184.51l2,4.6-1.57,2.52-4.62-1.1-12.37,2.63-.93,1.58,9.38,2.09,3.72,2.65,2.61,4.61-.4,5.65h7.32L43,206l7.13.14-.6-1.78,1.78-1.18,3.79,6.89,5.28-.88,8.32,2.54,3.06,4.19,3.64-.92.22,1.53,3.09,0,5.67,5.52Z" transform="translate(-16.57 0.3)"/><polygon class="cls-1" points="71.45 239.61 63.72 235.13 64.12 240.32 70.89 241.32 71.45 239.61"/></g><g id="FR-F"><path class="cls-1" d="M284.1,196.95a34.89,34.89,0,0,0,.15,4.54c3.61-4.71,5.34-6.11,9.33-7.5a32.6,32.6,0,0,1,4.39-1.19c7.94-1.57,15.92-1.14,23.88-.21,4.11.48,8.2,1.19,12.71,1.85-1-1.06-1.78-1.87-2.57-2.64-1.09-1.05-2.14-2.13-3.18-3.23l-1.37.92-10.87,0,3.07-2.67,0-3.65-3.87-2.1-.81-3.48-3.18-1.08-3.43,2.15-1.75-2.84-1.64,2.83-7.93.65.65-4.66-.45-2.37-2.05-.27.1-3.19-2.51,1-2.83-1.64-.6-5.44-5.82-5.29-1.5.37a10.89,10.89,0,0,1,3.86,8.09,113.86,113.86,0,0,1,.16,13.39C285.63,185.21,284.71,191.07,284.1,196.95Z" transform="translate(-16.57 0.3)"/><path class="cls-1" d="M239.08,217.82c1.41,1.63,2.83,3.25,4.25,4.9.67-.18,1.29-.31,1.88-.51a84.08,84.08,0,0,0,32.56-20.11c2-2.05,3.42-4.13,3.63-7.17.43-6.21,1.32-12.39,1.86-18.6a37.12,37.12,0,0,0-.6-11.46c-.95-4.17-2.8-5.51-7-5.13a6.16,6.16,0,0,0-2.05.59c-1.58.76-3.16,1.55-4.68,2.43q-6.54,3.79-13.39,6.91l.09.12L253.08,174l-6,3.14,2.5,6.77-1.35,1.2,4.9,3.45-2.69.34L248.89,191l1.23,1.67-2,.15.15,2.07,1.86.46.28,5.54-1.56,3.19-2.09-.76.33,4.23-2.77,4-4.81,3,1.37,1.52-.94,1.3Z" transform="translate(-16.57 0.3)"/><path class="cls-1" d="M345,198.82l-.13-3.53-1.51-1.3a24.54,24.54,0,0,0-1,2.86c.92.7,1.76,1.38,2.61,2Z" transform="translate(-16.57 0.3)"/><path class="cls-1" d="M333.14,188.68q2.58,2.55,5.35,4.95a14.8,14.8,0,0,0,1.32.89,27.51,27.51,0,0,1,1.55-3.52l-.48-2.12L337,187Z" transform="translate(-16.57 0.3)"/><path class="cls-1" d="M259.51,164.54a26.28,26.28,0,0,0-4.86,1.46l-.37.86Z" transform="translate(-16.57 0.3)"/><path class="cls-1" d="M275.76,142.77l-4.08,2.35.43,3.35-1.66,1.26L261.7,148l-.25,2.69-2.16-.74-1.18,1.9-6.58.78-.53,1.74-2.26,1.52,1.56,3.38,3.45,3.75A179.94,179.94,0,0,1,279,155.39c.86-.2,1.73-.38,2.61-.55l-.14-10-2.75-4.33q-1.49-.56-2.93-1.24l-.56.26Z" transform="translate(-16.57 0.3)"/><path class="cls-1" d="M217.39,248.44l1.09,2.73,4.22.24-.09,2.32q.84-3.17,1.67-6.35a17.17,17.17,0,0,0,.54-3.79c.11-3-1.37-4.66-4.42-4.74h-.33l-1.73,2.42Z" transform="translate(-16.57 0.3)"/><path class="cls-1" d="M331.39,186.9l-.08-.22h-.13Z" transform="translate(-16.57 0.3)"/><path class="cls-1" d="M290.37,250.35c-1.62.1-2.43,1.3-3.14,2.4A56.34,56.34,0,0,0,283,260c-5.28,11.73-10.59,23.46-15.56,35.33-.12.29-.23.59-.35.89l2.13.14,2.1-1.7,2.54,3.22,4.6-4.83.78,2,2.68-1.73.79,2,2.37-1.82,1.8,1.69,2.24-4,2.33,1.85,5.8-1,4.55,2,8-.58.11-.19a67.25,67.25,0,0,1-16.19-30.56c-.64-2.72-1.06-5.49-1.67-8.22C291.71,253,291.63,251.44,290.37,250.35Z" transform="translate(-16.57 0.3)"/><path class="cls-1" d="M317.12,206.49a26.65,26.65,0,0,0-.27,7.61c1.8,12.67,6.18,24.18,14.81,34a85.53,85.53,0,0,1,10.42,14.77l.82-5.88-2.49-2.46-1.5-12-4.73-4.68,2.62-6.09-3.42-6.12,5.32-1.92-2.08-6.91-3.26-2.16.17-2.5,7.21-1.82-.67-7.36,2.58-2.16a11.21,11.21,0,0,0-6.71-2.06c-4.41,0-8.8,0-13.06,1.34A7.66,7.66,0,0,0,317.12,206.49Z" transform="translate(-16.57 0.3)"/><path class="cls-1" d="M222.7,235.17l-.62.87a6.59,6.59,0,0,1,5.69,6.67,16.54,16.54,0,0,1-.29,3.81c-.6,2.87-1.25,5.74-2,8.57l2.28.21.85,7.33L240,261l-1.26-3,5.14,2,.53,4.27L253,275l-.1,7.58,4.3,2.05.23,1.85,3,0,4.95,6.18v0c4.16-10.21,8.68-20.29,13.13-30.38a94.26,94.26,0,0,1,5.3-9.93,18.53,18.53,0,0,1,3.42-4,4.05,4.05,0,0,1,4.48-.76l1.55.66c-.87-3.78-1.5-7.15-2.45-10.43-.8-2.78-2.33-3.33-4.85-2.12a98,98,0,0,1-16.41,6,29.91,29.91,0,0,1-12.59.67,78.71,78.71,0,0,1-15.23-4.17,27.49,27.49,0,0,0-3.88-1.22c-2.32-.47-3.6.17-4.79,2.22a16.22,16.22,0,0,1-1.25,2.31c-.41.5-1.23,1.07-1.73,1s-1.23-.86-1.72-1.43c-.22-.26-.19-.76-.22-1.16-.22-3.21.56-6.11,3.13-8.17,2.36-1.89,4.93-3.53,7.41-5.27.69-.48,1.39-.95,2.27-1.54-.77-1.06-1.32-1.93-2-2.69-.87-1-1.79-2-2.7-2.94l-2.52,1.34-2.73-1.5,0,4.51-6.28-2.14-1.6,4,1.14,2.39-2.85,6.16Z" transform="translate(-16.57 0.3)"/><path class="cls-1" d="M311,289.59l-14.87-31.37A59.08,59.08,0,0,0,311,289.59Z" transform="translate(-16.57 0.3)"/><path class="cls-1" d="M234.82,232.69a18.07,18.07,0,0,0-1.69,1.51c3.22-1,6.1-.08,9,.89,3.78,1.25,7.57,2.55,11.42,3.56a27.27,27.27,0,0,0,12.1.81A82.2,82.2,0,0,0,284,233.31c1.21-.55,2.41-1.12,3.67-1.72-2.74-9.4-5.14-18.71-6.27-28.66-.67.58-1.1.9-1.46,1.27a86.32,86.32,0,0,1-31.7,20.15c-2.21.82-4.6,1.23-6.05,3.46-.43.67-1.45.95-2.18,1.43C238.26,230.38,236.52,231.51,234.82,232.69Z" transform="translate(-16.57 0.3)"/><path class="cls-1" d="M291.72,233.14c2.06,2.43,2.68,5.42,3.21,8.41a70.93,70.93,0,0,0,5.33,18.1c3.35,7.07,6.58,14.21,10,21.27,1.09,2.28,2.28,4.5,3.52,6.7l6.68-.13,3.25-2.06-1.85-6.37h2.4l-.15-1.91,3.79-3.32,1.88,1.71,3.54-.53,3.09-4.05,4.59-.12.4-2.86a86.71,86.71,0,0,0-12.18-18.16,63.75,63.75,0,0,1-13.43-25.67,47.13,47.13,0,0,1-2.07-15.37c.39-6.46,3.32-10.19,9.48-12,.45-.13.91-.23,1.37-.34l0-.49c-1.32-.17-2.63-.37-3.95-.52a78.81,78.81,0,0,0-19.37-.2,26.07,26.07,0,0,0-9.36,2.79c-2.82,1.57-4.77,3.83-5.12,7.1a37.92,37.92,0,0,0-.24,7.39c.6,6.73,2.61,13.14,4.7,19.53A3.21,3.21,0,0,0,291.72,233.14Z" transform="translate(-16.57 0.3)"/></g><path id="FR-G" class="cls-1" d="M579.43,571.32l1.21-2.68,4.63-2.55-5.58-.66-.28-2.29-4.82,0,3-2-.77-1.43,2.48-.52,1.3-4.66-2.28-2.11-5.83,2.2-.63-4,2.32-.19.49-2.44,3.61-2.07-2-3.49-5-.88L571,536l-1.37-.52,6.43-1.64-3.76-2.17.44-2.47-2.58.89-.34-2.31,4.6-2.25,1-3-1.29-.54,3-2.62.23-3.34,2.61,1.75.55-2.74,8.85-2.18,4.55-5.08,4-.21,3.19,3.3,1.91-3.34-1.47-5.47,2.15-5.13-.88-4,3.45-1,1.68,1.41,1.22,10.14-2,7.42,3.6,7.14L612,537.86l-.4,5.13-5.7,8.35-1.05,17.06-4.47,2.72.37,1.18,1.27-1.66,2.12.59-4,3.53.2,3.66-2.88,2.81,2.09,0-3.31,2.73-3.59-1.65,1.13-2.4-2.1-.36.4-2-1.66,1.35-1.7-1.84-3.25,0-3.22-1.59.46-1.61-2.77-.49Z" transform="translate(-16.57 0.3)"/><g id="FR-H"><path class="cls-1" d="M312.11,137.45c1.6-1.88,2.86-3.65,4.4-5.13a27.52,27.52,0,0,0,4.35-5.38L318.5,128l-7.33-5.05-1.48,1c.22,1.84.49,3.68.77,5.52C310.87,132.09,311.54,134.7,312.11,137.45Z" transform="translate(-16.57 0.3)"/><path class="cls-1" d="M278.2,136.06l-.27.86a40.38,40.38,0,0,0,15.8,3.35c5.15.12,10.31-.4,15.6-.63,0-.41-.08-1-.19-1.64-.8-4.48-1.73-8.94-2.38-13.44,0-.29-.08-.59-.12-.88l-1.42.72-3.72-3-3.28,2.19-6.92.73-3.35-.72-2.1-3.56-3.38,9.23h-4.67l-.88,2.21-1.67-.18.89,4.73.29.15Z" transform="translate(-16.57 0.3)"/><path class="cls-1" d="M315.78,137.84a2.63,2.63,0,0,0-.38,2.93c3.63-.33,7.31-.48,10.92-1,5.56-.84,10.74-3,16-4.83q2.36-.81,4.58-1.81l.64-1.57L345.41,128l-2.84-.69-.14,2-3.28.89-.78-1.3-4.85,1.35-1.81-1.67-3.09,2.26-4.19-3-1.24,1.09a31.77,31.77,0,0,1-5,6A18.73,18.73,0,0,0,315.78,137.84Z" transform="translate(-16.57 0.3)"/><path class="cls-1" d="M298.62,143a76.44,76.44,0,0,1-10.51-.24,44.06,44.06,0,0,1-9.37-2.32l2.75,4.33.14,10c4.21-.8,8.51-1.22,12.76-1.87,2.77-.42,5.67-.68,7.82-2.66s3.95-4.17,5.89-6.29c.14-.15.14-.43.25-.81a6.62,6.62,0,0,0-1.59-.39C304,142.87,301.33,143,298.62,143Z" transform="translate(-16.57 0.3)"/><path class="cls-1" d="M358.36,157.59l.72-6.44L356,149.88l2-2-1.66-1.15,3.47-.33-.07-2.4-1,.92-3.25-2.16-.64-3.55-1.61,1.27-1-2.56-1.66.62-2.41-2.76c-5.34,2-10.72,3.93-16.14,5.7a41.58,41.58,0,0,1-12.51,2c-.93,0-1.86.13-3.05.23a15.32,15.32,0,0,0,.93,1.44c5.14,6.09,10.85,11.53,17.87,15.44,2.72,1.52,5.5,2.94,8.3,4.3a78.44,78.44,0,0,1,13.23,8l-1.31-5.6,2.27-.67-1.31-2.34,3.09-.86-.67-1.81,3.93-2.87-1-1.87Z" transform="translate(-16.57 0.3)"/><path class="cls-1" d="M306.58,150.15a13.41,13.41,0,0,1-9.06,5.32c-4.34.66-8.7,1.19-13.05,1.81-.32,0-.64.12-1,.2l5.82,5.29.6,5.44,2.83,1.64,2.51-1-.1,3.19,2.05.27.45,2.37-.65,4.66,7.93-.65,1.64-2.83,1.75,2.84,3.43-2.15,3.18,1.08.81,3.48,3.87,2.1,0,3.65-3.07,2.67,10.87,0,1.37-.92a80.38,80.38,0,0,1-11.27-14.91c-4.53-7.81-7.53-16-7.24-25.23a8.94,8.94,0,0,0-.31-1.68A35.13,35.13,0,0,0,306.58,150.15Z" transform="translate(-16.57 0.3)"/><path class="cls-1" d="M313.35,145.05a42.18,42.18,0,0,0,4.08,21.89,74.63,74.63,0,0,0,13.75,19.74h.13l.08.22q.86.9,1.75,1.78L337,187l4.58-5.38-1.33-3.44,1.33-3.38,10.83-1.36a97.46,97.46,0,0,0-13.91-7.75,68.74,68.74,0,0,1-24-19.4C314.21,145.92,313.84,145.57,313.35,145.05Z" transform="translate(-16.57 0.3)"/></g><g id="FR-I"><path class="cls-1" d="M217.05,441.25l-2.79-1.59,1.15-1.43-1.78-1.74-2.33,3,1.19.51A19.47,19.47,0,0,0,217.05,441.25Z" transform="translate(-16.57 0.3)"/><path class="cls-1" d="M258.57,412.33c-.07-1.53-.16-3.05-.26-4.58s-.19-2.82-.28-4.23l-2.06.69Z" transform="translate(-16.57 0.3)"/><path class="cls-1" d="M252.4,413.6l-1.12,4.1,3.38,2.06-1.83,4.82-2.21.38,1.69,2.66-4.35-.33.36,1.87-5.62,5-2.94-3.22-12.15,5.18-2.89-1.8-3.09,2.83-1.23-1.66-3,2.32.13,3.53a22.13,22.13,0,0,0,5.51-.06,19.18,19.18,0,0,1,4.52,0,23,23,0,0,1,11,4.38c1.23.88,2.42,1.83,3.7,2.65,2.2,1.4,4.23,1.37,6.17-.35a19.25,19.25,0,0,0,3.37-4,46.78,46.78,0,0,0,4.73-11.23,54.3,54.3,0,0,0,2.07-18.07l-4.37,1Z" transform="translate(-16.57 0.3)"/><path class="cls-1" d="M257.29,477.77a6.7,6.7,0,0,0-.45-6.84,4.35,4.35,0,0,0-.75-.93c-3-2.71-6.3-5-10.46-5.34a17.91,17.91,0,0,0-5.43.43,3.71,3.71,0,0,0-3,4.07c.09,2.67.95,5.19,3.21,6.66a25.45,25.45,0,0,0,10.89,4.26C254,480,256.19,480,257.29,477.77Z" transform="translate(-16.57 0.3)"/><path class="cls-1" d="M405.57,418.16l-3.41-2.42L400,416l-.63,3.19-1.76-.42-.15-3.24-2.73.48-2.87,4.24-5.28-4.14-3.4,1,.87-5-6.89-11L376,392.75,370.53,387l-3.19.54-.53-2.75H364.3l-.2,2.9-4.25,1.14L355.07,379l-3.55,2.82-1.82-.51-2.08,4.26-2.5-2.4-1.17,1-.21.58c-2.76,8.79-3.32,17.67-.37,26.75a15.25,15.25,0,0,1-.53,11,48.25,48.25,0,0,0-3.22,27.23c1,6.21,3.82,11,9.64,13.64a33.87,33.87,0,0,0,7,2.4c3.82.8,7.72,1.26,11.59,1.8a11.82,11.82,0,0,1,2.45.59l9.81-6.63,5.5-.38.88,2.89c2.55-1.8,5.07-3.63,7.5-5.55a23.6,23.6,0,0,0,9.51-19.3c0-2.08-.09-4.16-.15-6.23a40.6,40.6,0,0,1,1.92-13.94C405.39,418.8,405.48,418.48,405.57,418.16Z" transform="translate(-16.57 0.3)"/><path class="cls-1" d="M317.44,511c-1.26,0-2.21,0-3.16,0a67.1,67.1,0,0,1-16.89-1.74,80.43,80.43,0,0,1-24.54-10.6c-6.78-4.24-13.37-8.77-20.05-13.16-1.13-.75-2.25-1.53-3.45-2.16a6.52,6.52,0,0,0-5.78.13c-1.76.74-1.9,2.34-2.07,4a9.83,9.83,0,0,1-6.63,8.63c-1,.39-1.95.72-2.92,1.1a35,35,0,0,0-12,7.3,12.86,12.86,0,0,1-6.57,3.23,14.91,14.91,0,0,1-2.05.28l1.42,2,9.67-2.52L227.3,511l2.73-2.85,2.59,1.87,10.52,0-1.27-5.18,2.65-4.42,9.05,4.1,6.36,0,3.74,4.49,7.76-.6,3.35,6.54,2.34-2.83,10,2-.41,1.5,2.87.49-2.35,1.45-.39,3.41,8.54,2.37,3.42,5.87,5.77-4.22,4.21-.81,5,1.71q1.48-6.08,3-12.15C317,513,317.2,512.06,317.44,511Z" transform="translate(-16.57 0.3)"/><path class="cls-1" d="M389.07,465.9l1.67.62.41-2.08Z" transform="translate(-16.57 0.3)"/><path class="cls-1" d="M394.27,462.18c-.72.54-1.46,1.06-2.19,1.59l8.25-4.66.43-1.32-1.2-.42A34.23,34.23,0,0,1,394.27,462.18Z" transform="translate(-16.57 0.3)"/><path class="cls-1" d="M413.82,431.79l-2.73-.91,0-6.1-3-4.8h0a44.65,44.65,0,0,0-1.66,16.85,26.29,26.29,0,0,1-3.79,16.28l4.56.52,1.64-9.12-1.07-1.25,8.41-7Z" transform="translate(-16.57 0.3)"/><path class="cls-1" d="M332.87,493.29c.69-.39,1.38-.78,2.06-1.2A54.31,54.31,0,0,1,345.34,487l1.83-4.08,7.1-5.75,3.15-1,3.27,1.32,5.7-6.6.47-.32c-2.24-.27-4.48-.48-6.7-.84-6.2-1-12.21-2.56-17.16-6.76-.15-.13-.42-.11-.84-.21-1.77,10.66-7.33,20.06-9.72,30.52C332.72,493.29,332.82,493.32,332.87,493.29Z" transform="translate(-16.57 0.3)"/><path class="cls-1" d="M341.64,518.48l-.74-9.13.4-13.32,2.26-5.06a54,54,0,0,0-12.06,7.25A41.52,41.52,0,0,0,322,508.3a11,11,0,0,0-1.5,3.23q-2,8-3.91,15.92l1.58,2.31,7.88,0,0-3.54,5.22-.81,3-2.75,6.76-.43,2.22,2.77,3.8-.75-1.5-4.32Z" transform="translate(-16.57 0.3)"/><path class="cls-1" d="M319.7,506.38c2.35-2.92,4.86-5.72,7.44-8.43a6.2,6.2,0,0,0,1.74-3,105.54,105.54,0,0,1,5.52-17.09,92.53,92.53,0,0,0,4.93-16,5.56,5.56,0,0,0-.48-4.35,14.75,14.75,0,0,1-1.57-4.25,49.46,49.46,0,0,1,2.39-30.8,15.39,15.39,0,0,0,.49-11.2,33.61,33.61,0,0,1-1.49-7,52.1,52.1,0,0,1-.2-7l-4.65-12.28-3.6,1.08-1.49-5-5.5,5.58-1.85,7.33-3.17,4-5.46.59-2.38-1.62L307.08,398l-.31,1.88-3.25-4.64,1.74-5.36L301.93,385l-1.23-6-4.7,1.38-1.65-1.48-4.4,3.21-7.09-6.43-4-.84-5.21,2.46,1.3,7.4-5.88,4.86.73,3.25-7,4.09-1.81,5.61-.09,0q.32,5.24.65,10.49a58.73,58.73,0,0,1-6,30.45,20.28,20.28,0,0,1-4.61,6.38c-3.43,3-6.93,3.26-10.73.71-1.46-1-2.82-2.11-4.3-3.06a18.48,18.48,0,0,0-12.73-3.24,25.66,25.66,0,0,1-16.92-3.87l-1.12,1.08,2.21,1.68-.29,3.34-1.37.1,1.33,4.06-2.29,1.72-1.24,5.08,1.7,2,5.9,0,3.24,6.27-2,.51-.06,3,2.76-2,1.26,5.64-3.15,2.55,1.2,1.76L212.09,480l.22,2.61-2.05-.17-3.14,3.73.54,3.53-4.49,2.63-1.06,8.81,6.33,2.9.62.87.35,0a10.9,10.9,0,0,0,9-3.1,35,35,0,0,1,11.81-7.18c1.41-.56,2.85-1.05,4.23-1.69a6.32,6.32,0,0,0,4-5.56c.18-2.9,1.07-5.32,3.79-6.71-.13-.22-.16-.3-.22-.34-.41-.25-.8-.51-1.23-.72-4-1.9-5.92-5.23-6.56-9.42a7,7,0,0,1,4.74-7.95,13.88,13.88,0,0,1,3.27-.68c6.37-.6,11.55,2,16,6.27,2.8,2.68,3.29,6.12,2.36,9.76-.73,2.88-2.73,4.55-5.83,5.34.71.57,1.16,1,1.68,1.34,6.22,4.08,12.34,8.32,18.7,12.16a105.26,105.26,0,0,0,13,6.61,60.88,60.88,0,0,0,28.82,4.78A3.52,3.52,0,0,0,319.7,506.38Z" transform="translate(-16.57 0.3)"/></g><g id="FR-J"><path class="cls-1" d="M307.94,88.41a133.9,133.9,0,0,1-20.49,2.68l-1.86,2.68,0,4,2.17,2.83-1.29,2.19h3l-3.17,6.14,3.73,8.46-.62,1.81-1.29-1.67-2,.49-.23,2.09,2.1,3.56,3.35.72,6.92-.73,3.28-2.19,3.72,3,1.42-.72c-1.15-8.68-.79-17.24,2.51-25.55,1.25-3.15,1.32-6.51,1.47-9.87a3,3,0,0,0-.81-.17C309.19,88.16,308.56,88.28,307.94,88.41Z" transform="translate(-16.57 0.3)"/><path class="cls-1" d="M360,127.48a27.6,27.6,0,0,1-11.61,8.27l-.12,0,2.41,2.76,1.66-.62,1,2.56,1.61-1.27.64,3.55,3.25,2.16,1-.92,8-10.2L366.66,132l-2.72.39,2.2-2.54-1.55-2.68.89-1.95,5.25-.54-2.59-2.26A14.62,14.62,0,0,0,360,127.48Z" transform="translate(-16.57 0.3)"/><path class="cls-1" d="M389.54,62.38l-3,0,3.32-9L388,52.26l-1,2-2.3-3.21-1.73.11A79,79,0,0,0,368,53.62c-9.61,2.54-15.1,9-17.12,18.42C348.8,81.93,352,92.62,362.64,98.9a19.42,19.42,0,0,0,10.75,2.78c4.62-.17,7.82,1.19,10.05,4.34l1-7.58-2.26-3.25,3.8-.71.47-2.88,5.13-5.06-1.82-1.47,2-5.67-.88-5.82-1.5.17-2.43-4,3.91-3.21Z" transform="translate(-16.57 0.3)"/><path class="cls-1" d="M322.72,11.12l1.69-1.78-1.47-3.76a21.87,21.87,0,0,0-5.18.46C319.58,7.9,321.12,9.56,322.72,11.12Z" transform="translate(-16.57 0.3)"/><path class="cls-1" d="M348.78,67.35c-2.78.79-4-.83-5.13-2.71-.64-1.1-1.29-2.21-2-3.3A28.76,28.76,0,0,0,335,53.91a16.59,16.59,0,0,0-2.09-1.15c.1,1.95.12,3.37.24,4.79q.76,8.84,1.56,17.67A12.08,12.08,0,0,1,330.2,86c-.49.42-1,.82-1.47,1.23-3.76,3.23-4.26,5-2.62,9.66a34.9,34.9,0,0,1,2.13,10c.39,8.07-.93,15.51-5.05,22l1.24-1.09,4.19,3,3.09-2.26,1.81,1.67,4.85-1.35.78,1.3,3.28-.89.14-2,2.84.69,2.16,3.54-.64,1.57a33.32,33.32,0,0,0,12.1-9,13.31,13.31,0,0,1,7.68-4.52l-.27-4.77,5.51-2.72,3,.73.18-2.25,2.84-1.69,4.69,3,.07-.54A16.63,16.63,0,0,0,381,108a7.17,7.17,0,0,0-6.94-3.4,21.85,21.85,0,0,1-6.18-.42c-13.34-3-22.42-16.57-20.38-30.28C347.85,71.79,348.33,69.72,348.78,67.35Z" transform="translate(-16.57 0.3)"/><path class="cls-1" d="M312.93,6.66c-5.34,1.24-10.46,3-14.81,6.48-3.61,2.91-6.32,6.54-6.89,11.17a105.34,105.34,0,0,0-.76,15.05c.17,7.52,2.59,14.6,5.09,21.61a15.36,15.36,0,0,0,9,9.46c5.07,2.06,7.8,6,8.68,11.23a35.93,35.93,0,0,1-1.56,18.43,43.35,43.35,0,0,0-2.38,11,61.35,61.35,0,0,0,.41,12.87l1.48-1L318.5,128l2.36-1.06a32,32,0,0,0,4.43-16,35.24,35.24,0,0,0-2.41-14.07c-1.58-4.11-.53-7.69,2.58-10.71.8-.78,1.67-1.49,2.53-2.2a9.3,9.3,0,0,0,3.63-8.65c-.56-5.57-1-11.15-1.46-16.73a38.72,38.72,0,0,1-.13-5.51c.19-3,2.35-4.15,5-2.71A14.52,14.52,0,0,1,337.43,52a33.48,33.48,0,0,1,7.93,9.54c.5.88,1,1.74,1.67,2.78a6.12,6.12,0,0,0,.71-1c2.18-5.49,6.38-8.63,11.86-10.34a18.79,18.79,0,0,0,2.68-1c1.79-.88,2.11-1.78.92-3.42a17.89,17.89,0,0,0-3.59-3.82c-4-3-8.05-5.77-12.1-8.63-2.94-2.07-6-3.95-8.81-6.22q-3.2-2.62-6.3-5.38l-1.46-.68-.58-1.16q-1.78-1.62-3.52-3.26l-1.19-1.16-1.09,0-1.48-2.44V15.7c-2.65-2.66-5.26-5.37-7.89-8C314.54,7,314,6.41,312.93,6.66Z" transform="translate(-16.57 0.3)"/><path class="cls-1" d="M382.56,48.17l-.32-.44-1.45.59Z" transform="translate(-16.57 0.3)"/><path class="cls-1" d="M338,25.32c3.63,3.1,7.7,5.69,11.59,8.49l1.7,1.21-1.67-6.72.89-2.85-2.88-1.54-1.66-4.24-8.24,2.5-1,2C337.14,24.57,337.55,25,338,25.32Z" transform="translate(-16.57 0.3)"/><path class="cls-1" d="M275.43,68.4l10.78,9.83,3.07,8-1.52-.06L286.69,88a126.28,126.28,0,0,0,21.41-2.71c.77-.17,1.53-.38,2.25-.57.26-4.93-2.11-9.37-6.4-11.18-6.31-2.66-10.05-7.36-12-13.76-1.89-6.11-3.85-12.2-4.38-18.63a66.79,66.79,0,0,1,.76-17.68c1.07-5.8,4.44-10.18,9.15-13.6a37.16,37.16,0,0,1,15.21-6.17c2.59-.49,5.22-.73,7.83-1.1a8,8,0,0,0,1.17-.31l-.9-2.3L287.54,9.53l-3.47,3.83-3.33,1,1.35,4.42L280,23.85l.57,10.23.43,2-1.34,9,2.91,2.17-2.86.35-.75,5.12,6.28,6.1-6.87-1.21-6,9.22,3-.37Z" transform="translate(-16.57 0.3)"/><path class="cls-1" d="M361.82,42.63c3.41,2.65,4.19,4.1,5.44,8l1.39-.33L367,47l.07-5.63-2.16-2.56-4.48.57.76-2.36-1.83-.62-3.13,2.09C358.12,39.86,360,41.22,361.82,42.63Z" transform="translate(-16.57 0.3)"/><path class="cls-1" d="M374.48,49.15l-3.74-.92-1,1.85C371.3,49.73,372.88,49.42,374.48,49.15Z" transform="translate(-16.57 0.3)"/></g><g id="FR-K"><path class="cls-1" d="M225.26,117.08c2.15,0,4.31-.18,6.46-.41,2.38-.26,4.74-.74,7.12-1,2.05-.24,4.13-.56,6,.84.39.29,1.21.09,1.8,0a9.83,9.83,0,0,1,7.76,1.64,42.64,42.64,0,0,1,4.11,3.29c3.44,3.11,6.83,6.28,10.23,9.43a34.24,34.24,0,0,0,7.41,5.22l-.89-4.74,1.67.18.88-2.21h4.67l3.38-9.23.23-2.09,2-.49,1.3,1.67.62-1.81-3.73-8.46,3.17-6.14h-3l1.29-2.19-2.17-2.82,0-4,1.86-2.68c-2.61.13-5.22.19-7.85.15-7.67-.12-15.34-.6-23-.66-6.55,0-13.12,0-19.64.52a18.6,18.6,0,0,0-16.14,13.74l0,.08,1.15,1.07,5.41.15-.47,1.36-6.51,1.77-.18.14a13.22,13.22,0,0,0,.79,4.64C221.86,116.42,222.79,117.12,225.26,117.08Z" transform="translate(-16.57 0.3)"/><path class="cls-1" d="M277.94,136.92l.27-.87-1.77.14Q277.18,136.57,277.94,136.92Z" transform="translate(-16.57 0.3)"/><path class="cls-1" d="M215.09,172.46l2.45,1.23,3.59-5,6.49-1.45,3.38,3.49.22,3.43.94-.55A164.74,164.74,0,0,1,253.75,163l-3.45-3.75-1.56-3.38,2.25-1.52.53-1.74,6.58-.78,1.18-1.9,2.16.74.25-2.69,8.76,1.77,1.66-1.26-.43-3.35,4.08-2.35-.51-3.26.55-.26a35.48,35.48,0,0,1-9.33-6.37q-5.31-5-10.76-9.9a22.93,22.93,0,0,0-4.06-2.93,5.58,5.58,0,0,0-5.65,0,14.87,14.87,0,0,1-5.34,10.55A30.71,30.71,0,0,1,230,136.85c-6.17,2.13-10.64,6.33-14,11.82a16.34,16.34,0,0,0-2.31,9.13c.1,5.25-.12,10.51-.25,15.77Z" transform="translate(-16.57 0.3)"/><path class="cls-1" d="M235.45,177.91l1.9,3.82,4.29,1,.61-1.91,3.5,4.7,2.48-.37,1.35-1.2-2.5-6.76,6-3.14,2.56-4.23-.09-.12q-4.59,2.1-9.3,3.93c-3.73,1.44-7.48,2.84-11.25,4.23Z" transform="translate(-16.57 0.3)"/><path class="cls-1" d="M138.69,98.44l-2,2.35L140,111.08l4.26,2.8,3.86,7,1.52,13.79.85-1.67.27,5.88-2.62,6.17,1.66.84.25,4.9,5,5.56,1.49-.25,2.41,1.68-9-.14,3.46,9.09,2.79,1.76,2.8-.5,4.15-4.69,7.64,2.23,9.31.55,3.55,4,1.92-.87-.7-1.47,2.77-.74.5,2.57,5.88-4,4.7-.06,1.81,1.6,1.33-2.39,2.07.94.92-3.56,1.74,0,2.57,2.23-1.17,1.09,1.12,3.35,1.86.17a79.54,79.54,0,0,0-.12-10.9,16.48,16.48,0,0,1,1.91-9.49c3.61-6.72,8.75-11.79,16-14.4a28.9,28.9,0,0,0,10.38-6.29,11.61,11.61,0,0,0,3.82-7.28c.19-1.7-.23-2.22-2-2.1s-3.16.46-4.75.64c-3.34.38-6.67.8-10,1-4.72.34-7.34-1.46-8.45-6.6-.15-.69-.25-1.36-.34-2l-5.87,4.38-5.65,1-7.13-3.33-15-1L175,109.52l-4.54.48-1.71,2.92-1.62-1.19-2,1.78,1.45-4.62-5.93-9,3.34-3.79-1.5-5.71-8.64-.05-2.51,2.71-3.1-.17-13.82-4.4-.24,3.27,4.1,2.8Z" transform="translate(-16.57 0.3)"/><path class="cls-1" d="M222.83,95.13A22.7,22.7,0,0,1,240,87.72c10.31-.06,20.64-.11,30.94.3,5.29.21,10.56.22,15.8,0l1.06-1.86,1.52.06-3.07-8L275.43,68.4l-.15-2-3,.37-12.2,8.39-20.66,5L223.7,89.36l-5.88,12.82.43.4A21.09,21.09,0,0,1,222.83,95.13Z" transform="translate(-16.57 0.3)"/><path class="cls-1" d="M254.28,166.86l.37-.86c-3.87,1.48-8.28,3.68-9.48,4.9Z" transform="translate(-16.57 0.3)"/></g><g id="FR-L"><path class="cls-1" d="M215.76,181.18c1.46-.63,2.82-1.51,4.26-2.19,1.08-.51,2.32-1.39,3.31-1.19,2.17.43,3.4-.93,4.91-1.83l3-1.78-.22-3.43-3.37-3.5-6.49,1.46-3.59,5-2.45-1.23-1.61,1.1c0,.49,0,1,0,1.47,0,1.52-.2,3-.18,4.55C213.27,181.65,213.83,182,215.76,181.18Z" transform="translate(-16.57 0.3)"/><path class="cls-1" d="M180.72,227.74c-2.14,2.84-4.6,5.37-8,6.71a12.52,12.52,0,0,0-7.34,7.4A64.92,64.92,0,0,1,156,257.69c-2.71,3.45-5.43,6.9-8.25,10.48a65.08,65.08,0,0,0,9.75,14.64,33.05,33.05,0,0,0,4.64,4.14,14.85,14.85,0,0,0,12.19,3,5.07,5.07,0,0,1,6.15,2.92,7,7,0,0,0,.57.83c2-.83,3.88-1.6,5.77-2.44l2-.87.75-9.06-1.78-.88.9-1.63-3.45-5.55.89-3.26-5.52-4.53,1-2.19L177.94,260l4.5-1.87,7.81.51,2.29-2.16-.53-1.92,2.56-1.18,1.46.12-.9,1.71,3.51-2.3,8.82-1,1.72.3-1.52,2,2.07,1,1.78-2.83,2.08.86,1.21-4.48,2.58-.24.95-7.16,1.73-2.43c-2,0-4.1.1-6.14.19-8,.35-14.11-2.73-18-9.91-.87-1.62-1.76-3.23-2.77-4.76a8.73,8.73,0,0,0-5.95-4.11,23.76,23.76,0,0,0-8.73.63c.9.53,1.47.81,2,1.18a3,3,0,0,1,1.22,3.77A6.76,6.76,0,0,1,180.72,227.74Z" transform="translate(-16.57 0.3)"/><path class="cls-1" d="M233.45,211.23c1.84,2.22,3.73,4.41,5.63,6.6l.81-.43.94-1.3-1.37-1.52,4.81-3,2.77-4-.33-4.23,2.09.76,1.56-3.19-.28-5.54-1.86-.46-.15-2.07,2-.15L248.89,191l1.56-2.1,2.69-.34-4.9-3.44-2.48.37-3.5-4.7-.61,1.91-4.29-1-1.9-3.82-.45-.08-8.07,3c-.36,1.45-.72,3-1.14,4.55a22.75,22.75,0,0,0,1.33,15.45A43.19,43.19,0,0,0,233.45,211.23Z" transform="translate(-16.57 0.3)"/><path class="cls-1" d="M183.67,295.83a3.26,3.26,0,0,0-2.26,2.46l.52-.18,3.23,2.39,7.58-5L190,293.78l-1.48,1,.08-1C186.94,294.45,185.31,295.15,183.67,295.83Z" transform="translate(-16.57 0.3)"/><path class="cls-1" d="M131.89,229.83c1.32,1.59,2.44,1.61,4.26.66a23.91,23.91,0,0,0,3.09-1.84,31.56,31.56,0,0,1,9.39-4.69c3.12-1,6.29-1.8,9.46-2.59a157.4,157.4,0,0,1,26.47-4.17,3.72,3.72,0,0,0,2.92-1.66,18.32,18.32,0,0,1,2.95-2.7c1.93-1.54,4.08-2.85,5.84-4.55,6.76-6.53,11-14.65,14.07-23.4a1.66,1.66,0,0,0,0-.54c-2.28,0-4.43,0-6.58,0-6.55-.11-13.13.17-19.63-.46-4.81-.47-9.61-1.11-14.4-1.8L172.92,197l-5.75,2.37L163.37,211l-9.63-3.62.24,2-6.19,2.43-1.57,3.32-8.31.05L134,217.43l-.76-1.38-4.51,2.7-.48,5c.08.2.16.41.25.61A23.88,23.88,0,0,0,131.89,229.83Z" transform="translate(-16.57 0.3)"/><path class="cls-1" d="M123.47,260.94l2.28,3.61.14.11-.29-3.19-3.11-1.57.59-2.05-1.64-1.15-2.08.18.2,1.47c.25.31.5.62.76.92Z" transform="translate(-16.57 0.3)"/><path class="cls-1" d="M170.3,179.14c5.05.73,10.11,1.41,15.19,1.81,7.94.63,16,.15,24,.16.14,0,.29-.12.58-.25.29-4,.66-7.94.86-11.94l-1.86-.17-1.12-3.35,1.17-1.09-2.57-2.23-1.74,0-.92,3.56-2.07-.94-1.33,2.39-1.81-1.6-4.7.06-5.88,4-.5-2.57-2.77.74.7,1.47-1.92.87-3.55-4-9.31-.55,1,11.2Z" transform="translate(-16.57 0.3)"/><path class="cls-1" d="M109.49,240.76l4.69,1.94,2.33-1.22,3.16,2.77,5.31-1.92.21,5.83-3.36,2.17,8.07,2.34,3.07,4L127.47,265l-1.06.09a35.57,35.57,0,0,0,4.24,2.75,23.32,23.32,0,0,0,4.84,2,7.85,7.85,0,0,0,8.32-2.43c-.2-.48-.35-.93-.57-1.35-4.56-9-6.89-18.72-8.82-28.54a7,7,0,0,1-.1-1.66,11.68,11.68,0,0,1,.29-1.55c-4.54-.7-6.78-3.92-8.48-7.68l-.08-.18-.48.14-.26,2L119.7,227l-.79,3.38-4.4-1-1.43,1.77-4.2,4.51,2.23,2.2Z" transform="translate(-16.57 0.3)"/><path class="cls-1" d="M133.93,272.57a30.55,30.55,0,0,1-7.84-4l.06.62L138,282l1.82,7,6.83,4.49,5.58,1,1.94,3.69h5.17l5.7,4.33.17-2.69,3.56-.1,7.73-3.27,0,.09c.25-.2.49-.4.76-.58a7.57,7.57,0,0,0,.68-.6c-.49-2.31-1-2.75-3-2.4-6.21,1.09-11.52-.83-16.24-4.75a44,44,0,0,1-8.83-10.37c-1.51-2.35-2.91-4.77-4.44-7.28-.5.27-1,.5-1.43.79A11,11,0,0,1,133.93,272.57Z" transform="translate(-16.57 0.3)"/><path class="cls-1" d="M138,240.19c1.63,7.58,3.53,15.08,6.79,22.15.39.84.84,1.66,1.43,2.83,1.72-2.13,3.21-4,4.69-5.82,4.25-5.31,8.45-10.71,11-17.07,2.06-5.21,5.16-9.12,10.52-11a3.78,3.78,0,0,0,.84-.46,17.58,17.58,0,0,0,5.9-6.34c-1.68-.37-3-.8-4.4-1a51.51,51.51,0,0,0-13.61.52,58,58,0,0,0-20.14,7.3c-2.78,1.59-4.4,4.09-3.24,7.7C137.87,239.4,137.92,239.8,138,240.19Z" transform="translate(-16.57 0.3)"/><path class="cls-1" d="M178.31,299.37c0-.14,0-.28.05-.42-.32.23-.6.47-.88.71Z" transform="translate(-16.57 0.3)"/><path class="cls-1" d="M191.49,215.72a12.74,12.74,0,0,0-2,2c4.74,1.8,6.87,5.56,8.88,9.42.37.71.77,1.4,1.21,2.07A14.1,14.1,0,0,0,211.31,236c2.31.1,4.63-.11,7-.14a25.41,25.41,0,0,1,3.35.09c.16,0,.31.07.47.09l.62-.87-1.22-1.09,2.85-6.16-1.14-2.39,1.6-4,6.28,2.14,0-4.51,2.74,1.5,2.52-1.34c-.35-.37-.7-.74-1-1.12a65.66,65.66,0,0,1-10.07-14.26,27.09,27.09,0,0,1-2.05-20.47c.24-.8.37-1.63.64-2.85-3.76,1.47-6.53,4-10.19,4.17a76.32,76.32,0,0,1-6.72,14.82C203,206.12,198.19,211.83,191.49,215.72Z" transform="translate(-16.57 0.3)"/></g><g id="FR-M"><path class="cls-1" d="M456.47,393.13l-.6,1.6.58.41C456.45,394.47,456.46,393.8,456.47,393.13Z" transform="translate(-16.57 0.3)"/><path class="cls-1" d="M461.57,460.36q-8.19,10.17-16.4,20.33l2.66,2.89.73-1.51,2.68.38.38,2.05,4.7,1.61-.64,2.63,1.47,1.07,5-1-2.77-2,1.66-1.26,4.09,2.63,4.28-.06L468.18,491l2.49.12,1.32-5,7.35,1.62.85-3.29,4.65-.37,2.69-2.17,3.55,1.23,2.09-5.62-5.09-.32,5.88-4.3,1.19-4.26,6.06-.34,3-6.44,3.15.4,2.48-2,1-.91,1.46-3.78,6.58-3,1-.34,8-4-1.44-5.18,8.66-9.75-.88-7.64L520.5,429l-7-5L506,422l-5-7.32.22-3.42,2.31-.48-3.86-5.72,4.66-5.23-.22-3.35,4.73-.35L505.7,390l.94-2-3.6-2.26-3,.68-4.67-3.22-.22-5.12c-.16-.35-.31-.7-.44-1.08l-.08-.21-2.48-.28-1.76-5.3-5,0-2.47,3.36-3.58-1.07L478,370.36l-3.64.16-1.71,6.12,5,1,1.32,8.41L476.31,385l-1.83,1.28-4.71-.72-3.22,2.82-1.61-1.14-2.83,1.8,1.28,1.36-1.21,1.23-2.72,0c0,.89,0,1.78,0,2.66,0,6.23,0,12.46.13,18.69a17.87,17.87,0,0,0,4.64,11.57A24.75,24.75,0,0,1,470,437.73c.88,6.15.2,12-4,17C464.46,456.52,463.07,458.49,461.57,460.36Z" transform="translate(-16.57 0.3)"/><path class="cls-1" d="M436.87,480.46l4.59,0q8.84-11,17.71-22c1.6-2,3.1-4.07,4.71-6.06,3.26-4,3.89-8.68,3.24-13.59a22.52,22.52,0,0,0-5.28-12.38c-3.95-4.47-5.48-9.9-5.53-15.73,0-4.71,0-9.42.1-14.14l-1,1.21-6.08.09-1.91,6.26,2.78,2.41-2.07,1.79-6.48-1.61,1.67,3.59-3.27.69.47,2.91,2.61,2.15,5.65.24-.88,1.58,3.26,2.27v4.09l-1.79,1.42-1.72-1.14-2.5,3.39-3.59.77-3-2.07-1.16-3.41-8.42-1,.61-4.8-2.42,2.16-2-1.74-10,4.63-1.26-5-4.79-.81c-.18.64-.37,1.28-.58,1.91-.15.44-.27.89-.41,1.33v0l3,4.8,0,6.1,2.73.91,2.41,4.41-8.41,7,1.07,1.25-1.64,9.12-4.56-.52a32.25,32.25,0,0,1-2.64,3.74c-.15.19-.32.36-.48.54l1.2.42-.43,1.32-8.26,4.67-.92.66-.41,2.08,12.58.46,2.38,1.71-.35,3.51,10.56,1.85,1.74-1.62-1.78-1.15-.52-1.22,1.58-.23-1.37-1.6,5.87.26,3.32,5.71,7.41-.22,3.35-1.86,2.69,3.76Z" transform="translate(-16.57 0.3)"/></g></svg>